<?xml version="1.0" encoding="UTF-8"?>
<svg id="_レイヤー_1" data-name="レイヤー 1" xmlns="http://www.w3.org/2000/svg" xmlns:xlink="http://www.w3.org/1999/xlink" version="1.1" viewBox="0 0 347 103">
  <defs>
    <style>
      .cls-1 {
        fill: #333;
      }

      .cls-1, .cls-2, .cls-3, .cls-4, .cls-5 {
        stroke-width: 0px;
      }

      .cls-2 {
        fill: #fff;
        fill-rule: evenodd;
        opacity: .9;
      }

      .cls-6 {
        filter: url(#drop-shadow-1);
      }

      .cls-3 {
        fill: url(#_名称未設定グラデーション);
      }

      .cls-4 {
        fill: url(#_名称未設定グラデーション_2);
      }

      .cls-5 {
        fill: url(#_名称未設定グラデーション_3);
      }
    </style>
    <filter id="drop-shadow-1" filterUnits="userSpaceOnUse">
      <feOffset dx="0" dy=".6"/>
      <feGaussianBlur result="blur" stdDeviation="2.8"/>
      <feFlood flood-color="#000" flood-opacity=".3"/>
      <feComposite in2="blur" operator="in"/>
      <feComposite in="SourceGraphic"/>
    </filter>
    <linearGradient id="_名称未設定グラデーション" data-name="名称未設定グラデーション" x1="58" y1="92.1" x2="146" y2="30.1" gradientTransform="translate(0 103.9) scale(1 -1)" gradientUnits="userSpaceOnUse">
      <stop offset="0" stop-color="#d61717"/>
      <stop offset="1" stop-color="#ff6b00"/>
    </linearGradient>
    <linearGradient id="_名称未設定グラデーション_2" data-name="名称未設定グラデーション 2" x1="137.1" y1="75.2" x2="193.1" y2="12.2" gradientTransform="translate(0 103.9) scale(1 -1)" gradientUnits="userSpaceOnUse">
      <stop offset="0" stop-color="#d61717"/>
      <stop offset="1" stop-color="#ff6b00"/>
    </linearGradient>
    <linearGradient id="_名称未設定グラデーション_3" data-name="名称未設定グラデーション 3" x1="196.8" y1="88.7" x2="254.8" y2="25.7" gradientTransform="translate(0 103.9) scale(1 -1)" gradientUnits="userSpaceOnUse">
      <stop offset="0" stop-color="#d61717"/>
      <stop offset="1" stop-color="#ff6b00"/>
    </linearGradient>
  </defs>
  <path class="cls-2" d="M341.8,30.5l-33.9-27.8c-3.6-2.9-8.5-3.6-12.7-1.6-1.5.7-2.8,1.7-3.8,2.9-.1,0-.2,0-.3,0h-10.9c-5.3,0-10,3.5-11.5,8.6l-3,10.3c-1.2-4.4-3.3-8.5-6.8-11.9-5.8-5.8-13.6-7.9-21.3-7.9h-23c-7.7,0-15.5,2.1-21.3,7.9-1.6,1.6-2.8,3.2-3.9,5-2.1-.5-4.3-.7-6.4-.7h-27.7c0-2.5-.9-5-2.4-7.1-2.3-3-5.8-4.7-9.5-4.7h-12.6c-5.5,0-10.3,3.8-11.6,9.1l-.2,1-.2-.8c-1.2-5.5-6.1-9.3-11.7-9.3h-14.8c-5.6,0-10.4,3.9-11.7,9.3l-.2.9-.3-1.1c-1.3-5.4-6.1-9.1-11.6-9.1h-12.6c-.3,0-.7,0-1,0-1-1-2.1-1.8-3.4-2.4-4.2-2-9.2-1.4-12.7,1.6L4.4,30.5c-2.8,2.3-4.4,5.7-4.4,9.3v13.9c0,3.5,1.5,6.8,4.1,9.1l33.9,29.4c3.6,3.1,8.6,3.8,12.8,1.8,4.3-2,7-6.2,7-10.9v-12.8l3,11c1.4,5.2,6.2,8.8,11.6,8.8h15.5c5,0,9.4-3.1,11.2-7.7,1.8,4.6,6.2,7.7,11.2,7.7h15.5c.3,0,.6,0,.9,0v.2c0,6.6,5.4,12,12,12h56.1c6.6,0,12-5.4,12-12v-.6c2.4.5,4.9.7,7.4.7h23c5.3,0,10.8-1,15.5-3.6,2.3,2.4,5.4,3.9,8.8,3.9h11c5.3,0,10-3.5,11.5-8.6l4.2-14.2c0,.5,0,.9,0,1.4v13.9c0,6.6,5.4,12,12,12s6-1.2,8.2-3.2l33.6-29.1c2.6-2.3,4.1-5.6,4.1-9.1v-13.9c0-3.6-1.6-7-4.4-9.3ZM53.6,59.9l-15.4-12.7,11.1-8.7,6.5,23.8c-.6-.9-1.3-1.7-2.2-2.4ZM292.6,59.9c-1.3,1.1-2.4,2.5-3.2,4l7.4-25.5,11.1,8.7-15.4,12.7Z"/>
  <g class="cls-6">
    <path class="cls-3" d="M55.4,15.5h12.6l12.4,49.9,11.4-49.9h14.8l11.4,49.9,12.4-49.9h12.6l-17.1,62.7h-15.5l-11.2-49.9-11.2,49.9h-15.6L55.4,15.5Z"/>
    <path class="cls-4" d="M138.9,79.8c0-11.7,7.9-18.7,23.8-23.3,5.3-1.5,10.7-2.5,16.1-3.8,2.7-.6,4-2.3,4-5v-5.3c0-3-1.7-4.6-4.6-4.6h-21.4c-3.7,0-5.8,2-5.8,5.8v6.8h-11.5v-8.6c0-9.4,5-14.4,14.4-14.4h28.9c7.5,0,11.5,4,11.5,11.5v10.1c0,6.9-3.2,11.1-9.9,12.8-4.7,1.2-9.4,2.1-14.1,3.2-12.8,3-19.9,7.2-19.9,15h44.6v10.5h-56.1v-10.5Z"/>
    <path class="cls-5" d="M197.1,61.1v-28.8c0-11.2,6.1-17.3,17.3-17.3h23c11.2,0,17.3,6.1,17.3,17.3v4.6h-12.2v-4.5c0-4.5-2.4-6.9-6.9-6.9h-19.3c-4.5,0-6.9,2.5-6.9,6.9v28.5c0,4.5,2.4,6.9,6.9,6.9h19.3c4.5,0,6.9-2.4,6.9-6.9v-4.5h12.2v4.6c0,11.2-6.1,17.3-17.3,17.3h-23c-11.2,0-17.3-6.1-17.3-17.3h0Z"/>
    <path class="cls-1" d="M300.3,83.1v-13.9l26.9-22.2-26.9-21.1v-13.9l33.9,27.8v13.9l-33.9,29.4h0Z"/>
    <path class="cls-1" d="M12,53.7v-13.9L45.9,12v13.9l-26.9,21.1,26.9,22.2v13.9L12,53.7Z"/>
    <path class="cls-1" d="M280,16h10.9l-18.3,62.6h-11l18.3-62.6h0Z"/>
  </g>
</svg>