<svg width="113" height="88" viewBox="0 0 113 88" fill="none" xmlns="http://www.w3.org/2000/svg">
<path fill-rule="evenodd" clip-rule="evenodd" d="M2.8942 5.22517C5.16445 2.2536 8.69024 0.510254 12.4298 0.510254H25.0298C30.5442 0.510254 35.3488 4.26853 36.6767 9.6207L36.9543 10.7395L37.1637 9.82649C38.4147 4.37472 43.2663 0.510254 48.8598 0.510254H63.6898C69.2892 0.510254 74.1444 4.38281 75.3894 9.84209L75.5658 10.6157L75.8134 9.6185C77.1421 4.2674 81.9462 0.510254 87.4598 0.510254H100.06C103.799 0.510254 107.325 2.2536 109.595 5.22517C111.866 8.19674 112.621 12.0568 111.638 15.6648L94.5677 78.3148C93.1449 83.537 88.4023 87.1603 82.9898 87.1603H67.4398C62.4232 87.1603 58.0063 84.0524 56.2448 79.4836C54.4831 84.0529 50.0658 87.1603 45.0498 87.1603H29.4998C24.0873 87.1603 19.3447 83.537 17.9219 78.3148L0.85186 15.6648C-0.131204 12.0568 0.623952 8.19674 2.8942 5.22517Z" fill="white"/>
<path d="M12.4302 12.5098H25.0302L37.4102 62.4098L48.8602 12.5098H63.6902L75.0702 62.4098L87.4602 12.5098H100.06L82.9902 75.1598H67.4402L56.2802 25.2598L45.0502 75.1598H29.5002L12.4302 12.5098Z" fill="url(#paint0_linear_410_25)"/>
<defs>
<linearGradient id="paint0_linear_410_25" x1="12" y1="13.0098" x2="100" y2="75.0098" gradientUnits="userSpaceOnUse">
<stop stop-color="#D61717"/>
<stop offset="1" stop-color="#FF6B00"/>
</linearGradient>
</defs>
</svg>
